#!OML:ASF X:\für Bonn\!DataBase\2005_08_10_Bjorn_Final\c3d\bjorn.ASF
:FULLY-SPECIFIED
:DEGREES
331
root 13.3055 19.2565 2.91073 1127.02 -82.1449 -399.62
lowerback 0.127289 -2.29681 -2.99406
upperback 3.87431 -2.99529 -2.81607
thorax 3.92368 -1.57441 -1.33124
lowerneck 3.19262 -0.721091 7.11746
upperneck 11.801 -1.443 1.39334
head 3.22344 -0.519376 -0.80384
rclavicle -5.96354e-015 1.59028e-014
rhumerus -44.4133 -8.34151 -79.7124
rradius 55.6841
rwrist -22.5914
rhand 4.43366 1.53318
rfingers 7.12502
rthumb 29.8296 -26.0848
lclavicle -5.96354e-015 1.59028e-014
lhumerus -27.9654 -7.27302 82.9291
lradius 42.0165
lwrist -16.3241
lhand -16.545 -3.19259
lfingers 7.12502
lthumb 9.67439 26.5652
rfemur -25.3059 -6.01955 19.1
rtibia 45.4681
rfoot -11.6204 18.9632
rtoes -2.22221
lfemur -5.01223 10.4634 -14.8208
ltibia 21.7156
lfoot -20.3213 -4.87541
ltoes -15.9761
332
root 13.2495 19.2591 2.91446 1128.41 -82.1467 -400.861
lowerback -0.0965588 -2.42845 -2.97612
upperback 3.64982 -3.16454 -2.6075
thorax 3.82752 -1.6555 -1.13491
lowerneck 2.89893 -0.588672 7.01241
upperneck 11.9967 -1.28253 1.23345
head 3.34976 -0.441037 -0.839974
rclavicle 9.14409e-015 3.65764e-014
rhumerus -44.7375 -9.13466 -79.6294
rradius 55.7091
rwrist -22.492
rhand 3.9978 1.81885
rfingers 7.12502
rthumb 29.4136 -25.873
lclavicle 9.14409e-015 3.65764e-014
lhumerus -27.86 -7.16654 83.332
lradius 41.9272
lwrist -17.5425
lhand -15.7698 -3.02863
lfingers 7.12502
lthumb 10.4222 26.693
rfemur -25.9101 -6.11895 19.3942
rtibia 45.4551
rfoot -11.6006 19.4624
rtoes -2.27453
lfemur -4.73984 10.5648 -14.6726
ltibia 21.2456
lfoot -20.3288 -4.88628
ltoes -16.256
333
root 13.1931 19.2616 2.91811 1129.57 -82.1523 -401.892
lowerback -0.288632 -2.54509 -2.94842
upperback 3.45802 -3.31528 -2.43752
thorax 3.74577 -1.72742 -0.983495
lowerneck 2.56072 -0.473109 7.01609
upperneck 12.1878 -1.14387 1.04667
head 3.48349 -0.369934 -0.904331
rclavicle -4.33351e-014 -2.70347e-014
rhumerus -44.994 -10.0556 -79.5574
rradius 55.5806
rwrist -22.3287
rhand 3.55513 2.1612
rfingers 7.12502
rthumb 28.9909 -25.6041
lclavicle -4.33351e-014 -2.70347e-014
lhumerus -27.7288 -7.27104 83.7082
lradius 41.8934
lwrist -18.7097
lhand -15.0135 -2.833
lfingers 7.12502
lthumb 11.1517 26.8507
rfemur -26.4925 -6.2743 19.6656
rtibia 45.3752
rfoot -11.7543 19.8314
rtoes -2.95094
lfemur -4.41084 10.6895 -14.5399
ltibia 20.7296
lfoot -20.2956 -4.91349
ltoes -16.4086
334
root 13.135 19.2655 2.9216 1130.84 -82.1127 -403.053
lowerback -0.475355 -2.67162 -2.89025
upperback 3.28988 -3.48068 -2.22764
thorax 3.68717 -1.80657 -0.809841
lowerneck 2.16621 -0.354521 6.98224
upperneck 12.3917 -0.999356 0.824161
head 3.63351 -0.298041 -0.97433
rclavicle 1.23246e-014 1.74931e-014
rhumerus -45.167 -10.9062 -79.4577
rradius 55.3292
rwrist -22.1048
rhand 3.1091 2.55496
rfingers 7.12502
rthumb 28.5648 -25.2828
lclavicle 1.23246e-014 1.74931e-014
lhumerus -27.5751 -7.41338 84.1409
lradius 41.8929
lwrist -19.6844
lhand -14.1858 -2.67437
lfingers 7.12502
lthumb 11.95 26.9645
rfemur -27.0624 -6.43999 19.9809
rtibia 45.2137
rfoot -12.0528 20.0584
rtoes -3.82849
lfemur -4.04239 10.7173 -14.3659
ltibia 20.1659
lfoot -20.2419 -4.86642
ltoes -16.6153
335
root 13.0769 19.2699 2.92544 1131.93 -82.1052 -404.041
lowerback -0.63982 -2.78391 -2.82753
upperback 3.12483 -3.62805 -2.07594
thorax 3.61598 -1.87628 -0.697311
lowerneck 1.80563 -0.24871 7.04564
upperneck 12.5767 -0.868892 0.59601
head 3.77216 -0.230849 -1.06312
rclavicle -7.95139e-015 3.02153e-014
rhumerus -45.3841 -11.8024 -79.4142
rradius 55.0589
rwrist -21.8724
rhand 2.60373 2.95935
rfingers 7.12502
rthumb 28.0818 -24.9586
lclavicle -7.95139e-015 3.02153e-014
lhumerus -27.4231 -7.74449 84.5038
lradius 41.9125
lwrist -20.4731
lhand -13.4181 -2.64428
lfingers 7.12502
lthumb 12.6901 26.9502
rfemur -27.6571 -6.65332 20.2551
rtibia 44.963
rfoot -12.3886 20.2341
rtoes -4.85081
lfemur -3.64029 10.7235 -14.2364
ltibia 19.5585
lfoot -20.1314 -4.82994
ltoes -16.5766
336
root 13.017 19.2736 2.9296 1133.05 -82.0965 -405.081
lowerback -0.813781 -2.90665 -2.80126
upperback 3.0107 -3.78856 -1.87253
thorax 3.60968 -1.95518 -0.515314
lowerneck 1.36197 -0.127463 7.0386
upperneck 12.7666 -0.715935 0.334587
head 3.93023 -0.156008 -1.15089
rclavicle -7.95139e-015 -2.06736e-014
rhumerus -45.4898 -12.5888 -79.3322
rradius 54.7603
rwrist -21.6274
rhand 2.106 3.31318
rfingers 7.12502
rthumb 27.606 -24.6818
lclavicle -7.95139e-015 -2.06736e-014
lhumerus -27.2628 -8.06345 84.9309
lradius 41.9867
lwrist -21.1214
lhand -12.687 -2.68118
lfingers 7.12502
lthumb 13.3949 26.8682
rfemur -28.2505 -6.86131 20.5342
rtibia 44.6115
rfoot -12.6798 20.3214
rtoes -5.63697
lfemur -3.17791 10.7058 -14.1052
ltibia 18.9189
lfoot -20.0255 -4.6969
ltoes -16.6261
337
root 12.9577 19.2754 2.93434 1134.15 -82.0826 -406.137
lowerback -0.93602 -3.00554 -2.72407
upperback 2.90477 -3.92072 -1.7038
thorax 3.57722 -2.01838 -0.39365
lowerneck 0.934149 -0.0306072 7.10162
upperneck 12.9548 -0.595146 0.0696476
head 4.08595 -0.0953309 -1.25318
rclavicle 3.97569e-016 0
rhumerus -45.6367 -13.4272 -79.2806
rradius 54.5042
rwrist -21.4757
rhand 1.56733 3.58449
rfingers 7.12502
rthumb 27.0907 -24.4918
lclavicle 3.97569e-016 0
lhumerus -27.1825 -8.52371 85.3447
lradius 42.1458
lwrist -21.7456
lhand -12.0462 -2.68769
lfingers 7.12502
lthumb 14.0125 26.82
rfemur -28.8177 -7.06386 20.8112
rtibia 44.1643
rfoot -12.9282 20.3589
rtoes -6.12859
lfemur -2.68436 10.6646 -13.9706
ltibia 18.2784
lfoot -19.9086 -4.54488
ltoes -16.7809
338
root 12.8972 19.2773 2.93823 1135.24 -82.0431 -407.176
lowerback -1.06782 -3.11772 -2.66163
upperback 2.81358 -4.07064 -1.49989
thorax 3.56988 -2.09158 -0.23023
lowerneck 0.48954 0.0829878 7.11815
upperneck 13.1418 -0.449575 -0.197904
head 4.24692 -0.0252673 -1.3477
rclavicle 5.96354e-015 2.54444e-014
rhumerus -45.7052 -14.1301 -79.2343
rradius 54.1923
rwrist -21.4424
rhand 0.988179 3.85057
rfingers 7.12502
rthumb 26.5365 -24.3107
lclavicle 5.96354e-015 2.54444e-014
lhumerus -27.1512 -8.99611 85.7936
lradius 42.3725
lwrist -22.3297
lhand -11.4643 -2.71043
lfingers 7.12502
lthumb 14.5731 26.7576
rfemur -29.3756 -7.29936 21.1195
rtibia 43.6313
rfoot -13.1445 20.3367
rtoes -6.36922
lfemur -2.19598 10.6465 -13.8084
ltibia 17.6479
lfoot -19.7758 -4.43781
ltoes -16.7044
339
root 12.8368 19.2757 2.943 1136.27 -82.0407 -408.174
lowerback -1.17219 -3.22596 -2.63279
upperback 2.7379 -4.21597 -1.29232
thorax 3.56665 -2.16391 -0.0437409
lowerneck 0.0629926 0.200295 7.1154
upperneck 13.276 -0.291281 -0.472743
head 4.38723 0.0482854 -1.44026
rclavicle -2.94201e-014 -3.02153e-014
rhumerus -45.7463 -14.7616 -79.1735
rradius 53.8831
rwrist -21.4416
rhand 0.412077 4.08436
rfingers 7.12502
rthumb 25.985 -24.1591
lclavicle -2.94201e-014 -3.02153e-014
lhumerus -27.1386 -9.47533 86.2636
lradius 42.6495
lwrist -22.7838
lhand -10.9003 -2.76744
lfingers 7.12502
lthumb 15.1165 26.6605
rfemur -29.9012 -7.57036 21.3928
rtibia 43.0304
rfoot -13.3241 20.2616
rtoes -6.77444
lfemur -1.69851 10.5702 -13.6956
ltibia 17.055
lfoot -19.6639 -4.25583
ltoes -16.6428
340
root 12.7755 19.2724 2.94657 1137.2 -82.0481 -409.063
lowerback -1.29325 -3.32638 -2.62442
upperback 2.67934 -4.34981 -1.09277
thorax 3.59223 -2.23148 0.144083
lowerneck -0.397963 0.308789 7.09826
upperneck 13.4432 -0.150683 -0.716155
head 4.54713 0.113381 -1.52078
rclavicle 1.35174e-014 -2.38542e-014
rhumerus -45.752 -15.4172 -79.1066
rradius 53.5278
rwrist -21.3846
rhand -0.100005 4.25491
rfingers 7.12502
rthumb 25.4946 -24.0596
lclavicle 1.35174e-014 -2.38542e-014
lhumerus -27.1265 -10.0353 86.7238
lradius 42.9643
lwrist -23.0883
lhand -10.3466 -2.89237
lfingers 7.12502
lthumb 15.6499 26.4947
rfemur -30.4231 -7.82923 21.6495
rtibia 42.3767
rfoot -13.4838 20.0799
rtoes -7.28017
lfemur -1.21522 10.6348 -13.585
ltibia 16.4864
lfoot -19.5331 -4.19283
ltoes -16.6286
341
root 12.7134 19.2686 2.95124 1138.23 -82.0384 -410.058
lowerback -1.39147 -3.4156 -2.57237
upperback 2.60703 -4.47148 -0.888824
thorax 3.58813 -2.29165 0.31461
lowerneck -0.753461 0.409297 7.09696
upperneck 13.8923 0.00886609 -1.07305
head 4.29819 0.174952 -1.50628
rclavicle -4.37326e-015 1.90833e-014
rhumerus -45.7737 -16.0676 -79.0159
rradius 53.1351
rwrist -21.4011
rhand -0.525934 4.37161
rfingers 7.12502
rthumb 25.0865 -24.0006
lclavicle -4.37326e-015 1.90833e-014
lhumerus -27.1564 -10.6382 87.1986
lradius 43.2917
lwrist -23.4141
lhand -9.9031 -3.02683
lfingers 7.12502
lthumb 16.077 26.3262
rfemur -30.9665 -8.10864 21.926
rtibia 41.6857
rfoot -13.495 19.8655
rtoes -7.56481
lfemur -0.739274 10.5929 -13.4716
ltibia 15.9355
lfoot -19.4178 -3.99654
ltoes -16.7195
342
root 12.6511 19.2628 2.95601 1139.09 -82.0659 -410.931
lowerback -1.47759 -3.49868 -2.56217
upperback 2.5887 -4.58394 -0.702627
thorax 3.63551 -2.34939 0.488628
lowerneck -1.13557 0.505459 7.12354
upperneck 13.9358 0.151097 -1.35321
head 4.37968 0.236497 -1.59153
rclavicle 5.40694e-014 9.54166e-015
rhumerus -45.7241 -16.6613 -78.9855
rradius 52.7732
rwrist -21.5325
rhand -0.92968 4.35007
rfingers 7.12502
rthumb 24.6996 -24.0756
lclavicle 5.40694e-014 9.54166e-015
lhumerus -27.0792 -11.3558 87.6499
lradius 43.5567
lwrist -23.6405
lhand -9.59923 -3.15549
lfingers 7.12502
lthumb 16.3695 26.1737
rfemur -31.4801 -8.41203 22.156
rtibia 40.9749
rfoot -13.3876 19.6477
rtoes -7.72349
lfemur -0.220177 10.5784 -13.3935
ltibia 15.4013
lfoot -19.2994 -3.84126
ltoes -16.6873
343
root 12.5879 19.2572 2.95991 1139.79 -82.1188 -411.643
lowerback -1.53714 -3.56905 -2.5603
upperback 2.57503 -4.67986 -0.5433
thorax 3.67132 -2.39899 0.641968
lowerneck -1.45761 0.600376 7.11109
upperneck 13.9631 0.290634 -1.57343
head 4.44664 0.296485 -1.65161
rclavicle -7.95139e-016 -1.74931e-014
rhumerus -45.6949 -17.2761 -78.9492
rradius 52.3595
rwrist -21.5942
rhand -1.3265 4.40397
rfingers 7.12502
rthumb 24.3192 -24.0733
lclavicle -7.95139e-016 -1.74931e-014
lhumerus -26.967 -12.2112 88.0808
lradius 43.7874
lwrist -23.8373
lhand -9.36448 -3.26906
lfingers 7.12502
lthumb 16.5956 26.0414
rfemur -31.9625 -8.6245 22.3186
rtibia 40.2646
rfoot -13.2101 19.3933
rtoes -7.36483
lfemur 0.321814 10.5289 -13.3591
ltibia 14.8614
lfoot -19.2132 -3.61269
ltoes -17.0684
